<svg width="150" height="58" viewBox="0 0 150 58" fill="none" xmlns="http://www.w3.org/2000/svg">
<path fill-rule="evenodd" clip-rule="evenodd" d="M110.631 49.3355C99.0499 49.3355 89.701 39.9867 89.701 28.4053C89.701 16.8239 99.0499 7.47508 110.631 7.47508C122.213 7.47508 131.562 16.8239 131.562 28.4053C131.562 39.9867 122.213 49.3355 110.631 49.3355ZM117.143 41.4286C119.468 41.4286 121.329 39.5681 121.329 37.2425C121.329 34.9169 119.468 33.0565 117.143 33.0565C114.817 33.0565 112.957 34.9169 112.957 37.2425C112.957 39.5681 114.817 41.4286 117.143 41.4286ZM110.631 30.7309C111.934 30.7309 112.957 29.7076 112.957 28.4053C112.957 27.103 111.934 26.0797 110.631 26.0797C109.329 26.0797 108.306 27.103 108.306 28.4053C108.306 29.7076 109.329 30.7309 110.631 30.7309ZM99.9336 21.8937C97.608 21.8937 95.7476 23.7542 95.7476 26.0797C95.7476 28.4053 97.608 30.2658 99.9336 30.2658C102.259 30.2658 104.12 28.4053 104.12 26.0797C104.12 23.7542 102.259 21.8937 99.9336 21.8937ZM99.9336 37.2425C99.9336 39.5681 101.794 41.4286 104.12 41.4286C106.445 41.4286 108.306 39.5681 108.306 37.2425C108.306 34.9169 106.445 33.0565 104.12 33.0565C101.794 33.0565 99.9336 34.9169 99.9336 37.2425ZM110.631 13.0565C108.306 13.0565 106.445 14.9169 106.445 17.2425C106.445 19.5681 108.306 21.4286 110.631 21.4286C112.957 21.4286 114.817 19.5681 114.817 17.2425C114.817 14.9169 112.957 13.0565 110.631 13.0565ZM121.329 21.8937C119.003 21.8937 117.143 23.7542 117.143 26.0797C117.143 28.4053 119.003 30.2658 121.329 30.2658C123.655 30.2658 125.515 28.4053 125.515 26.0797C125.515 23.7542 123.655 21.8937 121.329 21.8937Z" fill="#3EC9A8"/>
<path fill-rule="evenodd" clip-rule="evenodd" d="M39.8671 49.3355C28.2857 49.3355 18.9369 39.9867 18.9369 28.4053C18.9369 16.8239 28.2857 7.47508 39.8671 7.47508C51.4485 7.47508 60.7974 16.8239 60.7974 28.4053C60.7974 39.9867 51.4485 49.3355 39.8671 49.3355ZM46.3788 41.4286C48.7043 41.4286 50.5648 39.5681 50.5648 37.2425C50.5648 34.9169 48.7043 33.0565 46.3788 33.0565C44.0532 33.0565 42.1927 34.9169 42.1927 37.2425C42.1927 39.5681 44.0532 41.4286 46.3788 41.4286ZM39.8671 30.7309C41.1694 30.7309 42.1927 29.7076 42.1927 28.4053C42.1927 27.103 41.1694 26.0797 39.8671 26.0797C38.5648 26.0797 37.5415 27.103 37.5415 28.4053C37.5415 29.7076 38.5648 30.7309 39.8671 30.7309ZM29.1694 21.8937C26.8439 21.8937 24.9834 23.7542 24.9834 26.0797C24.9834 28.4053 26.8439 30.2658 29.1694 30.2658C31.495 30.2658 33.3555 28.4053 33.3555 26.0797C33.3555 23.7542 31.495 21.8937 29.1694 21.8937ZM29.1694 37.2425C29.1694 39.5681 31.0299 41.4286 33.3555 41.4286C35.6811 41.4286 37.5415 39.5681 37.5415 37.2425C37.5415 34.9169 35.6811 33.0565 33.3555 33.0565C31.0299 33.0565 29.1694 34.9169 29.1694 37.2425ZM39.8671 13.0565C37.5415 13.0565 35.6811 14.9169 35.6811 17.2425C35.6811 19.5681 37.5415 21.4286 39.8671 21.4286C42.1927 21.4286 44.0532 19.5681 44.0532 17.2425C44.0532 14.9169 42.1927 13.0565 39.8671 13.0565ZM50.5648 21.8937C48.2392 21.8937 46.3788 23.7542 46.3788 26.0797C46.3788 28.4053 48.2392 30.2658 50.5648 30.2658C52.8904 30.2658 54.7508 28.4053 54.7508 26.0797C54.7508 23.7542 52.8904 21.8937 50.5648 21.8937Z" fill="#3EC9A8"/>
<path fill-rule="evenodd" clip-rule="evenodd" d="M39.6671 0C25.1712 0 13.2809 11.4975 12.0057 26.0527H2.57481C1.89275 26.0554 1.23939 26.3296 0.757097 26.8155C0.274805 27.3014 0.00267894 27.9596 1.99141e-05 28.6468C-0.00131251 28.9888 0.06423 29.3277 0.192905 29.6442C0.32158 29.9607 0.510868 30.2485 0.74996 30.4913C0.989053 30.7341 1.27327 30.927 1.58638 31.0591C1.89949 31.1913 2.23536 31.2599 2.57481 31.2613H12.0057C13.2901 45.8088 25.1779 57.309 39.6671 57.309C55.0143 57.309 67.4346 44.4064 67.4346 28.6468C67.4346 24.976 66.7587 21.4621 65.5313 18.2298C68.3864 16.4614 71.6435 15.5137 74.9874 15.5137C78.325 15.5137 81.5975 16.4576 84.4536 18.2196C83.2224 21.4545 82.5452 24.9726 82.5452 28.6468C82.5452 44.4064 94.9807 57.309 110.328 57.309C124.817 57.309 136.71 45.8088 137.994 31.2613H147.405C147.746 31.2626 148.084 31.1959 148.4 31.065C148.715 30.9341 149.002 30.7416 149.243 30.4985C149.484 30.2555 149.675 29.9667 149.805 29.6489C149.935 29.3311 150.001 28.9905 150 28.6468C149.999 28.3048 149.93 27.9664 149.799 27.651C149.668 27.3355 149.477 27.0492 149.236 26.8083C148.995 26.5674 148.709 26.3767 148.395 26.2471C148.081 26.1174 147.744 26.0514 147.405 26.0527H137.994C136.719 11.4975 124.824 0 110.328 0C100.375 0 91.6519 5.42273 86.7456 13.5299C83.1837 11.4296 79.1296 10.3051 74.9874 10.3051C70.8462 10.3051 66.8 11.4311 63.2392 13.5299C58.3386 5.42273 49.6196 0 39.6671 0ZM39.6671 5.21358C48.51 5.21358 56.1665 10.4429 59.8768 18.123C59.9371 18.3025 60.0167 18.4747 60.1141 18.6368C61.4892 21.6666 62.2598 25.058 62.2598 28.6469C62.2598 41.6643 52.1464 52.1005 39.6671 52.1005C27.1879 52.1005 17.0594 41.6643 17.0594 28.6469C17.0594 15.6296 27.1879 5.21358 39.6671 5.21358ZM110.328 5.21358C122.807 5.21358 132.941 15.6295 132.941 28.6468C132.941 41.6642 122.807 52.1004 110.328 52.1004C97.8486 52.1004 87.715 41.6642 87.715 28.6468C87.715 25.1047 88.4665 21.7533 89.8102 18.7537C89.9591 18.5319 90.0732 18.2882 90.1484 18.0313C93.8806 10.4007 101.52 5.21358 110.328 5.21358Z" fill="#5371FF"/>
</svg>
